<svg version="1.1" xmlns="http://www.w3.org/2000/svg" xmlns:xlink="http://www.w3.org/1999/xlink" width="50.96868" height="91.9345" viewBox="0,0,50.96868,91.9345"><g transform="translate(-214.9588,-134.9385)"><g stroke-miterlimit="10"><g><path d="M243.4071,226.623c2.677,-6.5778 6.802,-4.6181 6.802,-4.6181c4.3025,1.5599 7.0625,4.6181 7.0625,4.6181h-13.8645" fill="#e3a066" fill-rule="nonzero" stroke="none" stroke-width="1"/><path d="M249.9591,221.9118c4.3025,1.5595 7.3125,4.7112 7.3125,4.7112h-14.125" fill="none" fill-rule="evenodd" stroke="#8d6a4a" stroke-width="0.5"/><path d="M238.9591,226.623c3.0835,-3.1421 8.1245,-3.7278 8.1245,-3.7278c4.3025,1.56 5.74,3.7278 5.74,3.7278h-13.8645" fill="#e3a066" fill-rule="nonzero" stroke="none" stroke-width="1"/><path d="M247.0836,222.8952c4.3025,1.56 5.74,3.7278 5.74,3.7278h-14.125" fill="none" fill-rule="evenodd" stroke="#8d6a4a" stroke-width="0.5"/><path d="M248.2611,138.6448c3.4375,3.8017 -0.5625,8.4208 -0.5625,8.4208c0,0 -1.405,2.7962 0.3855,3.5995c0.0245,13.3782 -0.625,41.1381 -0.625,41.6046c0,0.6702 1.5,27.9856 1.6455,28.5095c0.2415,0.8682 1.1045,1.655 1.1045,1.655c-1.354,-0.1679 -2.4375,-1.4876 -2.4375,-1.4876c0.3335,1.1729 1.521,1.9481 1.521,1.9481c-1.021,-0.1232 -2.042,-0.0453 -2.5005,-0.0422c-0.4165,0.0015 -5.7495,1.3402 -7.833,3.7705h-12.5835c-0.25,0 -10.833,-11.1436 -11.1665,-24.2986c-0.3335,-13.155 3.263,-25.8284 6,-31.7058c3.1775,-6.8251 8.4895,-19.775 8.8645,-21.3149c0.375,-1.5393 0.014,-7.7999 2.4205,-10.9108c1.672,-2.1617 4.944,-3.2044 7.111,-3.2044c2.1665,0 6.747,1.3448 8.656,3.4563" fill="#3e5766" fill-rule="nonzero" stroke="none" stroke-width="1"/><path d="M248.6654,151.3918c0,0 2.0955,2.843 3.6895,6.2314c3.5,7.7501 5.75,19.2506 4.504,33.0139c-1.149,12.6945 -2.233,20.8413 -5.9425,27.3024c-0.5085,0.8858 1.4595,2.0225 1.4595,2.0225c-0.8335,0 -1.9395,0.1021 -1.9395,0.1021c0.083,1.0476 1.8145,1.3639 1.8145,1.3639c-2.396,1.1733 -3.1045,-0.4907 -3.1045,-0.4907c0.396,0.9743 0.9545,1.479 0.9545,1.479c-0.667,0.0418 -2.3295,-1.4694 -2.3295,-1.4694c0,1.1311 1.521,1.948 1.521,1.948c-9.9065,0.0644 -14.5835,-12.0238 -13.8335,-15.459c0.75,-3.4351 7.667,-36.6999 8.112,-44.073c0.4445,-7.3736 5.0945,-11.9711 5.0945,-11.9711" fill="#fbf8ea" fill-rule="nonzero" stroke="none" stroke-width="1"/><path d="M243.7403,161.2739c0.3336,-9.3066 4.3435,-10.6087 4.3435,-10.6087l1.661,2.2432c-3.1544,0.4087 -6.0084,8.4786 -6.0045,8.3655" fill="#f0c579" fill-rule="nonzero" stroke="none" stroke-width="1"/><path d="M247.2508,148.2804c0,0 -0.45,0.9859 0.125,1.5922c0.7155,0.7541 11.6175,11.9529 9.5836,39.4645c-1.6671,22.539 -5.4056,27.1153 -5.8266,28.0424c-0.2804,0.6168 -0.7669,1.5765 1.243,2.582c0,0 -1.2404,0.1548 -1.9395,0.1026c0,0 0.4711,0.9446 1.8145,1.3639c0,0 -0.6664,0.9074 -2.9164,0.2373" fill="none" fill-rule="evenodd" stroke="#d1c1b5" stroke-width="0.5"/><path d="M249.1048,220.7792c0.1875,0.8813 1.104,1.655 1.104,1.655c-1.354,-0.1679 -2.4375,-1.4876 -2.4375,-1.4876c0.3335,1.1729 1.521,1.9481 1.521,1.9481c-1.021,-0.1232 -2.042,-0.0453 -2.5,-0.0422c-0.4165,0.0015 -5.75,1.3402 -7.8334,3.7705h-12.5831c-0.25,0 -10.8335,-11.1436 -11.167,-24.2986c-0.3329,-13.155 3.2636,-25.8284 6,-31.7058c3.1781,-6.8251 8.4895,-19.775 8.8645,-21.3149c0.375,-1.5393 0.0145,-7.7999 2.4205,-10.9108c1.6726,-2.1617 4.9445,-3.2044 7.111,-3.2044c2.1666,0 6.823,1.278 8.6566,3.4563" fill="none" fill-rule="evenodd" stroke="#2e374a" stroke-width="0.5"/></g><path d="M246.79971,148.41602c0,0 0.29336,-0.03959 0.80577,-0.0673c0.25682,-0.01062 0.56868,-0.02336 0.92646,-0.03857c0.17912,-0.00495 0.37002,-0.01015 0.57071,-0.0158c0.20107,-0.00251 0.41022,0.02786 0.62988,0.0368c1.75474,0.11623 4.09288,0.33937 6.40213,0.77146c1.15486,0.21487 2.30152,0.47991 3.35945,0.79705c0.5295,0.15847 1.03439,0.33499 1.50926,0.51354c0.47256,0.18736 0.91291,0.38254 1.31108,0.58186c0.19313,0.1113 0.39231,0.19302 0.5611,0.30854c0.16415,0.12079 0.3203,0.23577 0.46677,0.34316c0.28017,0.23482 0.521,0.43742 0.69673,0.63141c0.18858,0.17855 0.30432,0.34896 0.38997,0.45679c0.08378,0.10948 0.12911,0.16742 0.12911,0.16742c0,0 -0.05477,-0.04916 -0.15737,-0.14146c-0.10211,-0.0922 -0.24638,-0.23037 -0.45472,-0.37713c-0.19642,-0.16015 -0.46119,-0.32048 -0.76049,-0.50165c-0.31113,-0.16572 -0.66402,-0.33936 -1.04084,-0.55074c-0.38613,-0.19329 -0.81473,-0.38351 -1.27702,-0.56622c-0.46538,-0.17508 -0.96077,-0.34812 -1.48157,-0.50421c-1.04205,-0.31247 -2.17609,-0.57432 -3.32007,-0.78748c-2.28904,-0.42858 -4.61463,-0.65069 -6.3584,-0.7657c-0.43708,-0.0113 -0.83562,-0.06137 -1.18894,-0.11048c-0.35406,-0.04048 -0.66284,-0.07528 -0.91721,-0.10417c-0.25476,-0.02693 -0.45513,-0.04785 -0.59208,-0.06195c-0.1344,-0.01408 -0.20971,-0.01518 -0.20971,-0.01518" fill="#8d6a4a" fill-rule="nonzero" stroke="none" stroke-width="1"/><path d="M241.1986,140.8958c0.078,-0.6596 1.0315,-1.2568 2.5,-1.194c1.953,0.1569 2.257,1.1467 2.25,1.5394c-0.0085,0.4756 -0.1385,1.1628 -2.373,1.1628c-1.9085,0 -2.447,-0.9155 -2.377,-1.5082" fill="#e2e3e4" fill-rule="nonzero" stroke="none" stroke-width="1"/><path d="M242.96234,142.30819c0,0 -0.7654,-0.4711 -0.6095,-1.3669c0.1561,-0.8929 1.073,-1.09 1.4186,-1.0583c0.3454,0.0312 0.623,0.3273 0.623,0.3273c0,0 0.74,0.558 0.5525,1.1708c-0.1875,0.6129 -1.1145,0.8859 -1.1145,0.8859c0,0 -0.7466,0.104 -0.8701,0.0412" fill="#2e374a" fill-rule="nonzero" stroke="none" stroke-width="1"/><path d="M241.1986,140.9385c0.078,-0.6596 1.0315,-1.2568 2.5,-1.194c1.953,0.1569 2.257,1.1468 2.25,1.5394c-0.0085,0.4756 -0.1385,1.1628 -2.373,1.1628c-1.9085,0 -2.447,-0.9155 -2.377,-1.5082z" fill="none" fill-rule="evenodd" stroke="#2e374a" stroke-width="0.5"/><g><path d="M241.1928,168.0546c1.4006,5.7815 1.3495,17.5957 -0.817,27.9017c-2.1664,10.306 -12.0835,21.1147 -12.8335,20.612c-0.75,-0.5027 -0.5,-1.5916 -0.3335,-4.8594c0.167,-3.2678 -1.1665,-7.2062 -2.1664,-9.0492c-1,-1.843 -0.5836,-6.0328 -0.5836,-6.0328c0,0 3.7356,-22.1061 4.507,-25.0054c0.993,-3.7343 3.7325,-5.0751 3.7325,-5.0751" fill="#3e5766" fill-rule="nonzero" stroke="none" stroke-width="1"/><path d="M241.1928,168.0546c1.4006,5.7815 1.3495,17.5957 -0.817,27.9017c-2.1664,10.306 -12.0835,21.1147 -12.8335,20.612c-0.75,-0.5027 -0.5,-1.5916 -0.3335,-4.8594c0.167,-3.2678 -1.1665,-7.2062 -2.1664,-9.0492c-1,-1.843 -0.5836,-6.0328 -0.5836,-6.0328c0,0 3.7356,-22.1061 4.507,-25.0054c0.993,-3.7343 3.7325,-5.0751 3.7325,-5.0751" fill="none" fill-rule="evenodd" stroke="#2e374a" stroke-width="0.5"/></g><path d="M244.6361,146.47428c-0.098,0.0141 4.2355,-2.4267 4.5625,-4.3989c0.25,-1.5082 -1.375,-3.1738 -0.9375,-3.582c0.2915,-0.2725 0.943,1.1774 2.219,1.8224c1.3655,0.6908 3.281,1.6967 6.437,2.1366c3.1565,0.4399 5.8755,1.2885 7.0315,2.5137c1.1565,1.2256 1.75,2.5765 1.75,2.5765c0,0 -1.4685,-2.294 -10.219,-1.4137c-6.7185,0.3454 -7.229,1.3614 -8.229,2.0004c-1,0.6384 0.198,-2.0632 -2.6145,-1.655" fill="#e3a066" fill-rule="nonzero" stroke="none" stroke-width="1"/><path d="M244.6361,146.6257c-0.098,0.0141 4.2355,-2.4267 4.5625,-4.3989c0.25,-1.5082 -1.375,-3.1738 -0.9375,-3.582c0.2915,-0.2725 0.943,1.1774 2.219,1.8224c1.3655,0.6908 3.281,1.6967 6.437,2.1366c3.1565,0.4399 5.8755,1.2885 7.0315,2.5137c1.1565,1.2256 1.75,2.5765 1.75,2.5765c0,0 -1.4685,-2.294 -10.219,-1.4137c-6.7185,0.3454 -7.229,1.3614 -8.229,2.0004c-1,0.6384 0.198,-2.0632 -2.6145,-1.655z" fill="none" fill-rule="evenodd" stroke="#8d6a4a" stroke-width="0.5"/></g></g></svg>